<svg width="19" height="19" viewBox="0 0 19 19" fill="none" xmlns="http://www.w3.org/2000/svg">
<path fill-rule="evenodd" clip-rule="evenodd" d="M11.2447 14.874C11.2447 15.04 11.308 15.1993 11.4206 15.3167C11.5332 15.4341 11.686 15.5 11.8453 15.5H16.6495C16.8087 15.5 16.9615 15.4341 17.0741 15.3167C17.1867 15.1993 17.25 15.04 17.25 14.874V9.86559C17.25 9.69955 17.1867 9.54031 17.0741 9.42291C16.9615 9.3055 16.8087 9.23954 16.6495 9.23954C16.4902 9.23954 16.3375 9.3055 16.2248 9.42291C16.1122 9.54031 16.0489 9.69955 16.0489 9.86559V13.121L11.7095 7.59053C11.6564 7.52293 11.5903 7.46768 11.5155 7.42832C11.4406 7.38897 11.3587 7.36638 11.275 7.36202C11.1913 7.35765 11.1076 7.37161 11.0294 7.40298C10.9511 7.43436 10.8801 7.48246 10.8208 7.5442L7.71363 10.7834L3.32257 4.48908C3.22651 4.36174 3.08685 4.27818 2.93293 4.25595C2.77901 4.23373 2.62282 4.27456 2.49717 4.36988C2.37153 4.4652 2.28622 4.60758 2.25917 4.7671C2.23212 4.92662 2.26544 5.09087 2.35212 5.22531L7.15634 12.1119C7.20733 12.1851 7.27295 12.2459 7.34866 12.2902C7.42438 12.3344 7.5084 12.361 7.59493 12.3682C7.68146 12.3753 7.76845 12.3628 7.8499 12.3315C7.93135 12.3002 8.00533 12.2509 8.06674 12.187L11.2003 8.919L15.3824 14.2479H11.8453C11.686 14.2479 11.5332 14.3139 11.4206 14.4313C11.308 14.5487 11.2447 14.7079 11.2447 14.874Z" fill="#D14F4F"/>
</svg>
