<svg width="18" height="19" viewBox="0 0 18 19" fill="none" xmlns="http://www.w3.org/2000/svg">
<path fill-rule="evenodd" clip-rule="evenodd" d="M10.4947 4.12608C10.4947 3.96004 10.558 3.8008 10.6706 3.6834C10.7832 3.56599 10.936 3.50003 11.0953 3.50003H15.8995C16.0587 3.50003 16.2115 3.56599 16.3241 3.6834C16.4367 3.8008 16.5 3.96004 16.5 4.12608V9.13447C16.5 9.30051 16.4367 9.45975 16.3241 9.57716C16.2115 9.69456 16.0587 9.76052 15.8995 9.76052C15.7402 9.76052 15.5875 9.69456 15.4748 9.57716C15.3622 9.45975 15.2989 9.30051 15.2989 9.13447V5.87902L10.9595 11.4095C10.9064 11.4771 10.8403 11.5324 10.7655 11.5717C10.6906 11.6111 10.6087 11.6337 10.525 11.638C10.4413 11.6424 10.3576 11.6285 10.2794 11.5971C10.2011 11.5657 10.1301 11.5176 10.0708 11.4559L6.96363 8.21668L2.57257 14.511C2.47651 14.6383 2.33685 14.7219 2.18293 14.7441C2.02901 14.7663 1.87282 14.7255 1.74717 14.6302C1.62153 14.5349 1.53622 14.3925 1.50917 14.233C1.48212 14.0734 1.51544 13.9092 1.60212 13.7747L6.40634 6.88821C6.45733 6.81498 6.52295 6.75414 6.59866 6.70989C6.67438 6.66564 6.7584 6.63903 6.84493 6.63189C6.93146 6.62475 7.01845 6.63725 7.0999 6.66853C7.18135 6.69981 7.25533 6.74913 7.31674 6.81308L10.4503 10.0811L14.6324 4.75213H11.0953C10.936 4.75213 10.7832 4.68617 10.6706 4.56876C10.558 4.45136 10.4947 4.29212 10.4947 4.12608Z" fill="#4FD18B"/>
</svg>
