<svg width="24" height="25" viewBox="0 0 24 25" fill="none" xmlns="http://www.w3.org/2000/svg">
<g clip-path="url(#clip0_20_27)">
<path d="M24 12.4C24 15.5826 22.7357 18.6348 20.4853 20.8853C18.2348 23.1357 15.1826 24.4 12 24.4C8.8174 24.4 5.76516 23.1357 3.51472 20.8853C1.26428 18.6348 0 15.5826 0 12.4C0 9.2174 1.26428 6.16515 3.51472 3.91471C5.76516 1.66428 8.8174 0.399994 12 0.399994C15.1826 0.399994 18.2348 1.66428 20.4853 3.91471C22.7357 6.16515 24 9.2174 24 12.4ZM8.244 9.44949H9.4815C9.6885 9.44949 9.8535 9.27999 9.8805 9.07449C10.0155 8.09049 10.6905 7.37349 11.8935 7.37349C12.9225 7.37349 13.8645 7.88799 13.8645 9.12549C13.8645 10.078 13.3035 10.516 12.417 11.182C11.4075 11.9155 10.608 12.772 10.665 14.1625L10.6695 14.488C10.6711 14.5864 10.7113 14.6803 10.7814 14.7493C10.8516 14.8183 10.9461 14.857 11.0445 14.857H12.261C12.3605 14.857 12.4558 14.8175 12.5262 14.7472C12.5965 14.6768 12.636 14.5814 12.636 14.482V14.3245C12.636 13.2475 13.0455 12.934 14.151 12.0955C15.0645 11.401 16.017 10.63 16.017 9.01149C16.017 6.74499 14.103 5.64999 12.0075 5.64999C10.107 5.64999 8.025 6.53499 7.8825 9.07899C7.88045 9.12743 7.88832 9.17578 7.90565 9.22107C7.92297 9.26635 7.94937 9.30761 7.98323 9.34232C8.01709 9.37702 8.05769 9.40443 8.10254 9.42286C8.14738 9.44129 8.19552 9.45036 8.244 9.44949ZM11.7315 19.114C12.6465 19.114 13.275 18.523 13.275 17.7235C13.275 16.8955 12.645 16.3135 11.7315 16.3135C10.8555 16.3135 10.218 16.8955 10.218 17.7235C10.218 18.523 10.8555 19.114 11.733 19.114H11.7315Z" fill="#A1A0BD"/>
</g>
<defs>
<clipPath id="clip0_20_27">
<rect width="24" height="24" fill="white" transform="translate(0 0.399994)"/>
</clipPath>
</defs>
</svg>
