<svg width="24" height="25" viewBox="0 0 24 25" fill="none" xmlns="http://www.w3.org/2000/svg">
<g clip-path="url(#clip0_20_25)">
<path d="M14.1075 2.375C13.488 0.275003 10.512 0.275003 9.8925 2.375L9.7425 2.885C9.64994 3.19939 9.48818 3.48908 9.26909 3.73282C9.05 3.97656 8.77913 4.16817 8.47634 4.2936C8.17356 4.41903 7.84654 4.47509 7.51927 4.45769C7.192 4.44028 6.87277 4.34984 6.585 4.193L6.12 3.938C4.1955 2.891 2.091 4.9955 3.1395 6.9185L3.393 7.385C4.062 8.615 3.4275 10.1465 2.085 10.5425L1.575 10.6925C-0.525 11.312 -0.525 14.288 1.575 14.9075L2.085 15.0575C2.39939 15.1501 2.68908 15.3118 2.93282 15.5309C3.17656 15.75 3.36817 16.0209 3.4936 16.3237C3.61902 16.6264 3.67509 16.9535 3.65768 17.2807C3.64028 17.608 3.54984 17.9272 3.393 18.215L3.138 18.68C2.091 20.6045 4.1955 22.709 6.1185 21.6605L6.585 21.407C6.87277 21.2502 7.192 21.1597 7.51927 21.1423C7.84654 21.1249 8.17356 21.181 8.47634 21.3064C8.77913 21.4318 9.05 21.6234 9.26909 21.8672C9.48818 22.1109 9.64994 22.4006 9.7425 22.715L9.8925 23.225C10.512 25.325 13.488 25.325 14.1075 23.225L14.2575 22.715C14.3501 22.4006 14.5118 22.1109 14.7309 21.8672C14.95 21.6234 15.2209 21.4318 15.5237 21.3064C15.8264 21.181 16.1535 21.1249 16.4807 21.1423C16.808 21.1597 17.1272 21.2502 17.415 21.407L17.88 21.662C19.8045 22.709 21.909 20.6045 20.8605 18.6815L20.607 18.215C20.4502 17.9272 20.3597 17.608 20.3423 17.2807C20.3249 16.9535 20.381 16.6264 20.5064 16.3237C20.6318 16.0209 20.8234 15.75 21.0672 15.5309C21.3109 15.3118 21.6006 15.1501 21.915 15.0575L22.425 14.9075C24.525 14.288 24.525 11.312 22.425 10.6925L21.915 10.5425C21.6006 10.4499 21.3109 10.2882 21.0672 10.0691C20.8234 9.85 20.6318 9.57913 20.5064 9.27635C20.381 8.97356 20.3249 8.64654 20.3423 8.31927C20.3597 7.992 20.4502 7.67277 20.607 7.385L20.862 6.92C21.909 4.9955 19.8045 2.891 17.8815 3.9395L17.415 4.193C17.1272 4.34984 16.808 4.44028 16.4807 4.45769C16.1535 4.47509 15.8264 4.41903 15.5237 4.2936C15.2209 4.16817 14.95 3.97656 14.7309 3.73282C14.5118 3.48908 14.3501 3.19939 14.2575 2.885L14.1075 2.375ZM12 17.195C10.8344 17.195 9.71649 16.732 8.89227 15.9077C8.06804 15.0835 7.605 13.9656 7.605 12.8C7.605 11.6344 8.06804 10.5165 8.89227 9.69227C9.71649 8.86805 10.8344 8.405 12 8.405C13.1652 8.405 14.2827 8.86789 15.1067 9.69183C15.9306 10.5158 16.3935 11.6333 16.3935 12.7985C16.3935 13.9637 15.9306 15.0812 15.1067 15.9052C14.2827 16.7291 13.1652 17.192 12 17.192V17.195Z" fill="#A1A0BD"/>
</g>
<defs>
<clipPath id="clip0_20_25">
<rect width="24" height="24" fill="white" transform="translate(0 0.800003)"/>
</clipPath>
</defs>
</svg>
