<svg width="24" height="25" viewBox="0 0 24 25" fill="none" xmlns="http://www.w3.org/2000/svg">
<g clip-path="url(#clip0_20_21)">
<path d="M1.99951 4.20049C1.99951 1.99099 6.47701 0.199993 12 0.199993C17.523 0.199993 22.0005 1.99099 22.0005 4.20049V6.19999C22.0005 8.40949 17.523 10.2005 12 10.2005C6.47701 10.2005 1.99951 8.40949 1.99951 6.19999V4.20049Z" fill="#A1A0BD"/>
<path d="M1.99951 9.70098V14.201C1.99951 16.4075 6.47701 18.2 12 18.2C17.523 18.2 22.0005 16.409 22.0005 14.1995V9.70098C21.325 10.1876 20.59 10.5858 19.8135 10.886C17.715 11.726 14.9505 12.2 12 12.2C9.05101 12.2 6.28651 11.7245 4.18801 10.886C3.41146 10.5859 2.6765 10.1876 2.00101 9.70098H1.99951Z" fill="#A1A0BD"/>
<path d="M22.0005 17.702C21.3249 18.1881 20.59 18.5858 19.8135 18.8855C17.7135 19.7255 14.9505 20.1995 11.9985 20.1995C9.04951 20.1995 6.28501 19.7255 4.18651 18.8855C3.40998 18.5853 2.67502 18.1871 1.99951 17.7005V20.1995C1.99951 22.409 6.47701 24.2 12 24.2C17.523 24.2 22.0005 22.409 22.0005 20.1995V17.702Z" fill="#A1A0BD"/>
</g>
<defs>
<clipPath id="clip0_20_21">
<rect width="24" height="24" fill="white" transform="translate(0 0.199993)"/>
</clipPath>
</defs>
</svg>
