<svg width="24" height="25" viewBox="0 0 24 25" fill="none" xmlns="http://www.w3.org/2000/svg">
<g clip-path="url(#clip0_20_14)">
<path d="M18 0.400009H6C5.20435 0.400009 4.44129 0.71608 3.87868 1.27869C3.31607 1.8413 3 2.60436 3 3.40001V21.4C3 22.1957 3.31607 22.9587 3.87868 23.5213C4.44129 24.0839 5.20435 24.4 6 24.4H18C18.7956 24.4 19.5587 24.0839 20.1213 23.5213C20.6839 22.9587 21 22.1957 21 21.4V3.40001C21 2.60436 20.6839 1.8413 20.1213 1.27869C19.5587 0.71608 18.7956 0.400009 18 0.400009V0.400009ZM7.5 6.40001H16.5C16.6989 6.40001 16.8897 6.47903 17.0303 6.61968C17.171 6.76033 17.25 6.9511 17.25 7.15001C17.25 7.34892 17.171 7.53969 17.0303 7.68034C16.8897 7.82099 16.6989 7.90001 16.5 7.90001H7.5C7.30109 7.90001 7.11032 7.82099 6.96967 7.68034C6.82902 7.53969 6.75 7.34892 6.75 7.15001C6.75 6.9511 6.82902 6.76033 6.96967 6.61968C7.11032 6.47903 7.30109 6.40001 7.5 6.40001ZM6.75 10.15C6.75 9.9511 6.82902 9.76033 6.96967 9.61968C7.11032 9.47903 7.30109 9.40001 7.5 9.40001H16.5C16.6989 9.40001 16.8897 9.47903 17.0303 9.61968C17.171 9.76033 17.25 9.9511 17.25 10.15C17.25 10.3489 17.171 10.5397 17.0303 10.6803C16.8897 10.821 16.6989 10.9 16.5 10.9H7.5C7.30109 10.9 7.11032 10.821 6.96967 10.6803C6.82902 10.5397 6.75 10.3489 6.75 10.15ZM7.5 12.4H16.5C16.6989 12.4 16.8897 12.479 17.0303 12.6197C17.171 12.7603 17.25 12.9511 17.25 13.15C17.25 13.3489 17.171 13.5397 17.0303 13.6803C16.8897 13.821 16.6989 13.9 16.5 13.9H7.5C7.30109 13.9 7.11032 13.821 6.96967 13.6803C6.82902 13.5397 6.75 13.3489 6.75 13.15C6.75 12.9511 6.82902 12.7603 6.96967 12.6197C7.11032 12.479 7.30109 12.4 7.5 12.4ZM7.5 15.4H12C12.1989 15.4 12.3897 15.479 12.5303 15.6197C12.671 15.7603 12.75 15.9511 12.75 16.15C12.75 16.3489 12.671 16.5397 12.5303 16.6803C12.3897 16.821 12.1989 16.9 12 16.9H7.5C7.30109 16.9 7.11032 16.821 6.96967 16.6803C6.82902 16.5397 6.75 16.3489 6.75 16.15C6.75 15.9511 6.82902 15.7603 6.96967 15.6197C7.11032 15.479 7.30109 15.4 7.5 15.4Z" fill="#A1A0BD"/>
</g>
<defs>
<clipPath id="clip0_20_14">
<rect width="24" height="24" fill="white" transform="translate(0 0.400009)"/>
</clipPath>
</defs>
</svg>
